solid OpenSCAD_Model
  facet normal 1 0 0
    outer loop
      vertex 4 0 3
      vertex 4 219 0
      vertex 4 219 3
    endloop
  endfacet
  facet normal 1 0 0
    outer loop
      vertex 4 219 0
      vertex 4 0 3
      vertex 4 0 0
    endloop
  endfacet
  facet normal -1 0 0
    outer loop
      vertex 0 0 0
      vertex 0 219 3
      vertex 0 219 0
    endloop
  endfacet
  facet normal -1 0 0
    outer loop
      vertex 0 219 3
      vertex 0 0 0
      vertex 0 0 3
    endloop
  endfacet
  facet normal 0 -1 0
    outer loop
      vertex 0 0 0
      vertex 4 0 3
      vertex 0 0 3
    endloop
  endfacet
  facet normal 0 -1 0
    outer loop
      vertex 4 0 3
      vertex 0 0 0
      vertex 4 0 0
    endloop
  endfacet
  facet normal 0 0 -1
    outer loop
      vertex 0 0 0
      vertex 4 219 0
      vertex 4 0 0
    endloop
  endfacet
  facet normal 0 0 -1
    outer loop
      vertex 4 219 0
      vertex 0 0 0
      vertex 0 219 0
    endloop
  endfacet
  facet normal 0 1 0
    outer loop
      vertex 4 219 0
      vertex 0 219 3
      vertex 4 219 3
    endloop
  endfacet
  facet normal 0 1 0
    outer loop
      vertex 0 219 3
      vertex 4 219 0
      vertex 0 219 0
    endloop
  endfacet
  facet normal 0 0 1
    outer loop
      vertex 0 219 3
      vertex 4 0 3
      vertex 4 219 3
    endloop
  endfacet
  facet normal 0 0 1
    outer loop
      vertex 4 0 3
      vertex 0 219 3
      vertex 0 0 3
    endloop
  endfacet
endsolid OpenSCAD_Model
